<svg xmlns="http://www.w3.org/2000/svg" viewBox="0 0 800 800" width="800" height="800">
  <rect width="800" height="800" fill="#000000"/>
  <rect x="40" y="40" width="21" height="21" fill="#ffffff" stroke="#000000" stroke-width="4" rx="1"/>
  <rect x="65" y="40" width="21" height="21" fill="#ffffff" stroke="#000000" stroke-width="4" rx="1"/>
  <rect x="90" y="40" width="21" height="21" fill="#ffffff" stroke="#000000" stroke-width="4" rx="1"/>
  <rect x="115" y="40" width="21" height="21" fill="#ffffff" stroke="#000000" stroke-width="4" rx="1"/>
  <rect x="140" y="40" width="21" height="21" fill="#ffffff" stroke="#000000" stroke-width="4" rx="1"/>
  <rect x="90" y="65" width="21" height="21" fill="#ffffff" stroke="#000000" stroke-width="4" rx="1"/>
  <rect x="90" y="90" width="21" height="21" fill="#ffffff" stroke="#000000" stroke-width="4" rx="1"/>
  <rect x="90" y="115" width="21" height="21" fill="#ffffff" stroke="#000000" stroke-width="4" rx="1"/>
  <rect x="90" y="140" width="21" height="21" fill="#ffffff" stroke="#000000" stroke-width="4" rx="1"/>
  <rect x="90" y="165" width="21" height="21" fill="#ffffff" stroke="#000000" stroke-width="4" rx="1"/>
  <rect x="90" y="190" width="21" height="21" fill="#ffffff" stroke="#000000" stroke-width="4" rx="1"/>
  <rect x="190" y="40" width="21" height="21" fill="#ffffff" stroke="#000000" stroke-width="4" rx="1"/>
  <rect x="290" y="40" width="21" height="21" fill="#ffffff" stroke="#000000" stroke-width="4" rx="1"/>
  <rect x="190" y="65" width="21" height="21" fill="#ffffff" stroke="#000000" stroke-width="4" rx="1"/>
  <rect x="290" y="65" width="21" height="21" fill="#ffffff" stroke="#000000" stroke-width="4" rx="1"/>
  <rect x="190" y="90" width="21" height="21" fill="#ffffff" stroke="#000000" stroke-width="4" rx="1"/>
  <rect x="290" y="90" width="21" height="21" fill="#ffffff" stroke="#000000" stroke-width="4" rx="1"/>
  <rect x="190" y="115" width="21" height="21" fill="#ffffff" stroke="#000000" stroke-width="4" rx="1"/>
  <rect x="215" y="115" width="21" height="21" fill="#ffffff" stroke="#000000" stroke-width="4" rx="1"/>
  <rect x="240" y="115" width="21" height="21" fill="#ffffff" stroke="#000000" stroke-width="4" rx="1"/>
  <rect x="265" y="115" width="21" height="21" fill="#ffffff" stroke="#000000" stroke-width="4" rx="1"/>
  <rect x="290" y="115" width="21" height="21" fill="#ffffff" stroke="#000000" stroke-width="4" rx="1"/>
  <rect x="190" y="140" width="21" height="21" fill="#ffffff" stroke="#000000" stroke-width="4" rx="1"/>
  <rect x="290" y="140" width="21" height="21" fill="#ffffff" stroke="#000000" stroke-width="4" rx="1"/>
  <rect x="190" y="165" width="21" height="21" fill="#ffffff" stroke="#000000" stroke-width="4" rx="1"/>
  <rect x="290" y="165" width="21" height="21" fill="#ffffff" stroke="#000000" stroke-width="4" rx="1"/>
  <rect x="190" y="190" width="21" height="21" fill="#ffffff" stroke="#000000" stroke-width="4" rx="1"/>
  <rect x="290" y="190" width="21" height="21" fill="#ffffff" stroke="#000000" stroke-width="4" rx="1"/>
  <rect x="340" y="40" width="21" height="21" fill="#ffffff" stroke="#000000" stroke-width="4" rx="1"/>
  <rect x="365" y="40" width="21" height="21" fill="#ffffff" stroke="#000000" stroke-width="4" rx="1"/>
  <rect x="390" y="40" width="21" height="21" fill="#ffffff" stroke="#000000" stroke-width="4" rx="1"/>
  <rect x="415" y="40" width="21" height="21" fill="#ffffff" stroke="#000000" stroke-width="4" rx="1"/>
  <rect x="440" y="40" width="21" height="21" fill="#ffffff" stroke="#000000" stroke-width="4" rx="1"/>
  <rect x="340" y="65" width="21" height="21" fill="#ffffff" stroke="#000000" stroke-width="4" rx="1"/>
  <rect x="340" y="90" width="21" height="21" fill="#ffffff" stroke="#000000" stroke-width="4" rx="1"/>
  <rect x="340" y="115" width="21" height="21" fill="#ffffff" stroke="#000000" stroke-width="4" rx="1"/>
  <rect x="365" y="115" width="21" height="21" fill="#ffffff" stroke="#000000" stroke-width="4" rx="1"/>
  <rect x="390" y="115" width="21" height="21" fill="#ffffff" stroke="#000000" stroke-width="4" rx="1"/>
  <rect x="415" y="115" width="21" height="21" fill="#ffffff" stroke="#000000" stroke-width="4" rx="1"/>
  <rect x="340" y="140" width="21" height="21" fill="#ffffff" stroke="#000000" stroke-width="4" rx="1"/>
  <rect x="340" y="165" width="21" height="21" fill="#ffffff" stroke="#000000" stroke-width="4" rx="1"/>
  <rect x="340" y="190" width="21" height="21" fill="#ffffff" stroke="#000000" stroke-width="4" rx="1"/>
  <rect x="365" y="190" width="21" height="21" fill="#ffffff" stroke="#000000" stroke-width="4" rx="1"/>
  <rect x="390" y="190" width="21" height="21" fill="#ffffff" stroke="#000000" stroke-width="4" rx="1"/>
  <rect x="415" y="190" width="21" height="21" fill="#ffffff" stroke="#000000" stroke-width="4" rx="1"/>
  <rect x="440" y="190" width="21" height="21" fill="#ffffff" stroke="#000000" stroke-width="4" rx="1"/>
  <rect x="65" y="265" width="21" height="21" fill="#ffffff" stroke="#000000" stroke-width="4" rx="1"/>
  <rect x="90" y="265" width="21" height="21" fill="#ffffff" stroke="#000000" stroke-width="4" rx="1"/>
  <rect x="115" y="265" width="21" height="21" fill="#ffffff" stroke="#000000" stroke-width="4" rx="1"/>
  <rect x="140" y="265" width="21" height="21" fill="#ffffff" stroke="#000000" stroke-width="4" rx="1"/>
  <rect x="40" y="290" width="21" height="21" fill="#ffffff" stroke="#000000" stroke-width="4" rx="1"/>
  <rect x="40" y="315" width="21" height="21" fill="#ffffff" stroke="#000000" stroke-width="4" rx="1"/>
  <rect x="40" y="340" width="21" height="21" fill="#ffffff" stroke="#000000" stroke-width="4" rx="1"/>
  <rect x="40" y="365" width="21" height="21" fill="#ffffff" stroke="#000000" stroke-width="4" rx="1"/>
  <rect x="40" y="390" width="21" height="21" fill="#ffffff" stroke="#000000" stroke-width="4" rx="1"/>
  <rect x="65" y="415" width="21" height="21" fill="#ffffff" stroke="#000000" stroke-width="4" rx="1"/>
  <rect x="90" y="415" width="21" height="21" fill="#ffffff" stroke="#000000" stroke-width="4" rx="1"/>
  <rect x="115" y="415" width="21" height="21" fill="#ffffff" stroke="#000000" stroke-width="4" rx="1"/>
  <rect x="140" y="415" width="21" height="21" fill="#ffffff" stroke="#000000" stroke-width="4" rx="1"/>
  <rect x="190" y="265" width="21" height="21" fill="#ffffff" stroke="#000000" stroke-width="4" rx="1"/>
  <rect x="215" y="265" width="21" height="21" fill="#ffffff" stroke="#000000" stroke-width="4" rx="1"/>
  <rect x="240" y="265" width="21" height="21" fill="#ffffff" stroke="#000000" stroke-width="4" rx="1"/>
  <rect x="265" y="265" width="21" height="21" fill="#ffffff" stroke="#000000" stroke-width="4" rx="1"/>
  <rect x="190" y="290" width="21" height="21" fill="#ffffff" stroke="#000000" stroke-width="4" rx="1"/>
  <rect x="290" y="290" width="21" height="21" fill="#ffffff" stroke="#000000" stroke-width="4" rx="1"/>
  <rect x="190" y="315" width="21" height="21" fill="#ffffff" stroke="#000000" stroke-width="4" rx="1"/>
  <rect x="290" y="315" width="21" height="21" fill="#ffffff" stroke="#000000" stroke-width="4" rx="1"/>
  <rect x="190" y="340" width="21" height="21" fill="#ffffff" stroke="#000000" stroke-width="4" rx="1"/>
  <rect x="215" y="340" width="21" height="21" fill="#ffffff" stroke="#000000" stroke-width="4" rx="1"/>
  <rect x="240" y="340" width="21" height="21" fill="#ffffff" stroke="#000000" stroke-width="4" rx="1"/>
  <rect x="265" y="340" width="21" height="21" fill="#ffffff" stroke="#000000" stroke-width="4" rx="1"/>
  <rect x="190" y="365" width="21" height="21" fill="#ffffff" stroke="#000000" stroke-width="4" rx="1"/>
  <rect x="240" y="365" width="21" height="21" fill="#ffffff" stroke="#000000" stroke-width="4" rx="1"/>
  <rect x="190" y="390" width="21" height="21" fill="#ffffff" stroke="#000000" stroke-width="4" rx="1"/>
  <rect x="265" y="390" width="21" height="21" fill="#ffffff" stroke="#000000" stroke-width="4" rx="1"/>
  <rect x="190" y="415" width="21" height="21" fill="#ffffff" stroke="#000000" stroke-width="4" rx="1"/>
  <rect x="290" y="415" width="21" height="21" fill="#ffffff" stroke="#000000" stroke-width="4" rx="1"/>
  <rect x="365" y="265" width="21" height="21" fill="#ffffff" stroke="#000000" stroke-width="4" rx="1"/>
  <rect x="390" y="265" width="21" height="21" fill="#ffffff" stroke="#000000" stroke-width="4" rx="1"/>
  <rect x="415" y="265" width="21" height="21" fill="#ffffff" stroke="#000000" stroke-width="4" rx="1"/>
  <rect x="340" y="290" width="21" height="21" fill="#ffffff" stroke="#000000" stroke-width="4" rx="1"/>
  <rect x="440" y="290" width="21" height="21" fill="#ffffff" stroke="#000000" stroke-width="4" rx="1"/>
  <rect x="340" y="315" width="21" height="21" fill="#ffffff" stroke="#000000" stroke-width="4" rx="1"/>
  <rect x="440" y="315" width="21" height="21" fill="#ffffff" stroke="#000000" stroke-width="4" rx="1"/>
  <rect x="340" y="340" width="21" height="21" fill="#ffffff" stroke="#000000" stroke-width="4" rx="1"/>
  <rect x="440" y="340" width="21" height="21" fill="#ffffff" stroke="#000000" stroke-width="4" rx="1"/>
  <rect x="340" y="365" width="21" height="21" fill="#ffffff" stroke="#000000" stroke-width="4" rx="1"/>
  <rect x="440" y="365" width="21" height="21" fill="#ffffff" stroke="#000000" stroke-width="4" rx="1"/>
  <rect x="340" y="390" width="21" height="21" fill="#ffffff" stroke="#000000" stroke-width="4" rx="1"/>
  <rect x="440" y="390" width="21" height="21" fill="#ffffff" stroke="#000000" stroke-width="4" rx="1"/>
  <rect x="365" y="415" width="21" height="21" fill="#ffffff" stroke="#000000" stroke-width="4" rx="1"/>
  <rect x="390" y="415" width="21" height="21" fill="#ffffff" stroke="#000000" stroke-width="4" rx="1"/>
  <rect x="415" y="415" width="21" height="21" fill="#ffffff" stroke="#000000" stroke-width="4" rx="1"/>
  <rect x="515" y="265" width="21" height="21" fill="#ffffff" stroke="#000000" stroke-width="4" rx="1"/>
  <rect x="540" y="265" width="21" height="21" fill="#ffffff" stroke="#000000" stroke-width="4" rx="1"/>
  <rect x="565" y="265" width="21" height="21" fill="#ffffff" stroke="#000000" stroke-width="4" rx="1"/>
  <rect x="590" y="265" width="21" height="21" fill="#ffffff" stroke="#000000" stroke-width="4" rx="1"/>
  <rect x="490" y="290" width="21" height="21" fill="#ffffff" stroke="#000000" stroke-width="4" rx="1"/>
  <rect x="490" y="315" width="21" height="21" fill="#ffffff" stroke="#000000" stroke-width="4" rx="1"/>
  <rect x="515" y="340" width="21" height="21" fill="#ffffff" stroke="#000000" stroke-width="4" rx="1"/>
  <rect x="540" y="340" width="21" height="21" fill="#ffffff" stroke="#000000" stroke-width="4" rx="1"/>
  <rect x="565" y="340" width="21" height="21" fill="#ffffff" stroke="#000000" stroke-width="4" rx="1"/>
  <rect x="590" y="365" width="21" height="21" fill="#ffffff" stroke="#000000" stroke-width="4" rx="1"/>
  <rect x="590" y="390" width="21" height="21" fill="#ffffff" stroke="#000000" stroke-width="4" rx="1"/>
  <rect x="490" y="415" width="21" height="21" fill="#ffffff" stroke="#000000" stroke-width="4" rx="1"/>
  <rect x="515" y="415" width="21" height="21" fill="#ffffff" stroke="#000000" stroke-width="4" rx="1"/>
  <rect x="540" y="415" width="21" height="21" fill="#ffffff" stroke="#000000" stroke-width="4" rx="1"/>
  <rect x="565" y="415" width="21" height="21" fill="#ffffff" stroke="#000000" stroke-width="4" rx="1"/>
  <rect x="665" y="265" width="21" height="21" fill="#ffffff" stroke="#000000" stroke-width="4" rx="1"/>
  <rect x="690" y="265" width="21" height="21" fill="#ffffff" stroke="#000000" stroke-width="4" rx="1"/>
  <rect x="715" y="265" width="21" height="21" fill="#ffffff" stroke="#000000" stroke-width="4" rx="1"/>
  <rect x="740" y="265" width="21" height="21" fill="#ffffff" stroke="#000000" stroke-width="4" rx="1"/>
  <rect x="640" y="290" width="21" height="21" fill="#ffffff" stroke="#000000" stroke-width="4" rx="1"/>
  <rect x="640" y="315" width="21" height="21" fill="#ffffff" stroke="#000000" stroke-width="4" rx="1"/>
  <rect x="665" y="340" width="21" height="21" fill="#ffffff" stroke="#000000" stroke-width="4" rx="1"/>
  <rect x="690" y="340" width="21" height="21" fill="#ffffff" stroke="#000000" stroke-width="4" rx="1"/>
  <rect x="715" y="340" width="21" height="21" fill="#ffffff" stroke="#000000" stroke-width="4" rx="1"/>
  <rect x="740" y="365" width="21" height="21" fill="#ffffff" stroke="#000000" stroke-width="4" rx="1"/>
  <rect x="740" y="390" width="21" height="21" fill="#ffffff" stroke="#000000" stroke-width="4" rx="1"/>
  <rect x="640" y="415" width="21" height="21" fill="#ffffff" stroke="#000000" stroke-width="4" rx="1"/>
  <rect x="665" y="415" width="21" height="21" fill="#ffffff" stroke="#000000" stroke-width="4" rx="1"/>
  <rect x="690" y="415" width="21" height="21" fill="#ffffff" stroke="#000000" stroke-width="4" rx="1"/>
  <rect x="715" y="415" width="21" height="21" fill="#ffffff" stroke="#000000" stroke-width="4" rx="1"/>
  <rect x="190" y="490" width="21" height="21" fill="#ffffff" stroke="#000000" stroke-width="4" rx="1"/>
  <rect x="290" y="490" width="21" height="21" fill="#ffffff" stroke="#000000" stroke-width="4" rx="1"/>
  <rect x="190" y="515" width="21" height="21" fill="#ffffff" stroke="#000000" stroke-width="4" rx="1"/>
  <rect x="290" y="515" width="21" height="21" fill="#ffffff" stroke="#000000" stroke-width="4" rx="1"/>
  <rect x="190" y="540" width="21" height="21" fill="#ffffff" stroke="#000000" stroke-width="4" rx="1"/>
  <rect x="290" y="540" width="21" height="21" fill="#ffffff" stroke="#000000" stroke-width="4" rx="1"/>
  <rect x="190" y="565" width="21" height="21" fill="#ffffff" stroke="#000000" stroke-width="4" rx="1"/>
  <rect x="240" y="565" width="21" height="21" fill="#ffffff" stroke="#000000" stroke-width="4" rx="1"/>
  <rect x="290" y="565" width="21" height="21" fill="#ffffff" stroke="#000000" stroke-width="4" rx="1"/>
  <rect x="190" y="590" width="21" height="21" fill="#ffffff" stroke="#000000" stroke-width="4" rx="1"/>
  <rect x="240" y="590" width="21" height="21" fill="#ffffff" stroke="#000000" stroke-width="4" rx="1"/>
  <rect x="290" y="590" width="21" height="21" fill="#ffffff" stroke="#000000" stroke-width="4" rx="1"/>
  <rect x="190" y="615" width="21" height="21" fill="#ffffff" stroke="#000000" stroke-width="4" rx="1"/>
  <rect x="215" y="615" width="21" height="21" fill="#ffffff" stroke="#000000" stroke-width="4" rx="1"/>
  <rect x="265" y="615" width="21" height="21" fill="#ffffff" stroke="#000000" stroke-width="4" rx="1"/>
  <rect x="290" y="615" width="21" height="21" fill="#ffffff" stroke="#000000" stroke-width="4" rx="1"/>
  <rect x="215" y="640" width="21" height="21" fill="#ffffff" stroke="#000000" stroke-width="4" rx="1"/>
  <rect x="265" y="640" width="21" height="21" fill="#ffffff" stroke="#000000" stroke-width="4" rx="1"/>
  <rect x="365" y="490" width="21" height="21" fill="#ffffff" stroke="#000000" stroke-width="4" rx="1"/>
  <rect x="390" y="490" width="21" height="21" fill="#ffffff" stroke="#000000" stroke-width="4" rx="1"/>
  <rect x="415" y="490" width="21" height="21" fill="#ffffff" stroke="#000000" stroke-width="4" rx="1"/>
  <rect x="340" y="515" width="21" height="21" fill="#ffffff" stroke="#000000" stroke-width="4" rx="1"/>
  <rect x="440" y="515" width="21" height="21" fill="#ffffff" stroke="#000000" stroke-width="4" rx="1"/>
  <rect x="340" y="540" width="21" height="21" fill="#ffffff" stroke="#000000" stroke-width="4" rx="1"/>
  <rect x="440" y="540" width="21" height="21" fill="#ffffff" stroke="#000000" stroke-width="4" rx="1"/>
  <rect x="340" y="565" width="21" height="21" fill="#ffffff" stroke="#000000" stroke-width="4" rx="1"/>
  <rect x="440" y="565" width="21" height="21" fill="#ffffff" stroke="#000000" stroke-width="4" rx="1"/>
  <rect x="340" y="590" width="21" height="21" fill="#ffffff" stroke="#000000" stroke-width="4" rx="1"/>
  <rect x="440" y="590" width="21" height="21" fill="#ffffff" stroke="#000000" stroke-width="4" rx="1"/>
  <rect x="340" y="615" width="21" height="21" fill="#ffffff" stroke="#000000" stroke-width="4" rx="1"/>
  <rect x="440" y="615" width="21" height="21" fill="#ffffff" stroke="#000000" stroke-width="4" rx="1"/>
  <rect x="365" y="640" width="21" height="21" fill="#ffffff" stroke="#000000" stroke-width="4" rx="1"/>
  <rect x="390" y="640" width="21" height="21" fill="#ffffff" stroke="#000000" stroke-width="4" rx="1"/>
  <rect x="415" y="640" width="21" height="21" fill="#ffffff" stroke="#000000" stroke-width="4" rx="1"/>
  <rect x="490" y="490" width="21" height="21" fill="#ffffff" stroke="#000000" stroke-width="4" rx="1"/>
  <rect x="515" y="490" width="21" height="21" fill="#ffffff" stroke="#000000" stroke-width="4" rx="1"/>
  <rect x="540" y="490" width="21" height="21" fill="#ffffff" stroke="#000000" stroke-width="4" rx="1"/>
  <rect x="565" y="490" width="21" height="21" fill="#ffffff" stroke="#000000" stroke-width="4" rx="1"/>
  <rect x="490" y="515" width="21" height="21" fill="#ffffff" stroke="#000000" stroke-width="4" rx="1"/>
  <rect x="590" y="515" width="21" height="21" fill="#ffffff" stroke="#000000" stroke-width="4" rx="1"/>
  <rect x="490" y="540" width="21" height="21" fill="#ffffff" stroke="#000000" stroke-width="4" rx="1"/>
  <rect x="590" y="540" width="21" height="21" fill="#ffffff" stroke="#000000" stroke-width="4" rx="1"/>
  <rect x="490" y="565" width="21" height="21" fill="#ffffff" stroke="#000000" stroke-width="4" rx="1"/>
  <rect x="515" y="565" width="21" height="21" fill="#ffffff" stroke="#000000" stroke-width="4" rx="1"/>
  <rect x="540" y="565" width="21" height="21" fill="#ffffff" stroke="#000000" stroke-width="4" rx="1"/>
  <rect x="565" y="565" width="21" height="21" fill="#ffffff" stroke="#000000" stroke-width="4" rx="1"/>
  <rect x="490" y="590" width="21" height="21" fill="#ffffff" stroke="#000000" stroke-width="4" rx="1"/>
  <rect x="540" y="590" width="21" height="21" fill="#ffffff" stroke="#000000" stroke-width="4" rx="1"/>
  <rect x="490" y="615" width="21" height="21" fill="#ffffff" stroke="#000000" stroke-width="4" rx="1"/>
  <rect x="565" y="615" width="21" height="21" fill="#ffffff" stroke="#000000" stroke-width="4" rx="1"/>
  <rect x="490" y="640" width="21" height="21" fill="#ffffff" stroke="#000000" stroke-width="4" rx="1"/>
  <rect x="590" y="640" width="21" height="21" fill="#ffffff" stroke="#000000" stroke-width="4" rx="1"/>
  <rect x="640" y="490" width="21" height="21" fill="#ffffff" stroke="#000000" stroke-width="4" rx="1"/>
  <rect x="665" y="490" width="21" height="21" fill="#ffffff" stroke="#000000" stroke-width="4" rx="1"/>
  <rect x="690" y="490" width="21" height="21" fill="#ffffff" stroke="#000000" stroke-width="4" rx="1"/>
  <rect x="715" y="490" width="21" height="21" fill="#ffffff" stroke="#000000" stroke-width="4" rx="1"/>
  <rect x="640" y="515" width="21" height="21" fill="#ffffff" stroke="#000000" stroke-width="4" rx="1"/>
  <rect x="740" y="515" width="21" height="21" fill="#ffffff" stroke="#000000" stroke-width="4" rx="1"/>
  <rect x="640" y="540" width="21" height="21" fill="#ffffff" stroke="#000000" stroke-width="4" rx="1"/>
  <rect x="740" y="540" width="21" height="21" fill="#ffffff" stroke="#000000" stroke-width="4" rx="1"/>
  <rect x="640" y="565" width="21" height="21" fill="#ffffff" stroke="#000000" stroke-width="4" rx="1"/>
  <rect x="740" y="565" width="21" height="21" fill="#ffffff" stroke="#000000" stroke-width="4" rx="1"/>
  <rect x="640" y="590" width="21" height="21" fill="#ffffff" stroke="#000000" stroke-width="4" rx="1"/>
  <rect x="740" y="590" width="21" height="21" fill="#ffffff" stroke="#000000" stroke-width="4" rx="1"/>
  <rect x="640" y="615" width="21" height="21" fill="#ffffff" stroke="#000000" stroke-width="4" rx="1"/>
  <rect x="740" y="615" width="21" height="21" fill="#ffffff" stroke="#000000" stroke-width="4" rx="1"/>
  <rect x="640" y="640" width="21" height="21" fill="#ffffff" stroke="#000000" stroke-width="4" rx="1"/>
  <rect x="665" y="640" width="21" height="21" fill="#ffffff" stroke="#000000" stroke-width="4" rx="1"/>
  <rect x="690" y="640" width="21" height="21" fill="#ffffff" stroke="#000000" stroke-width="4" rx="1"/>
  <rect x="715" y="640" width="21" height="21" fill="#ffffff" stroke="#000000" stroke-width="4" rx="1"/>
</svg>